# xmcd
#
# Track frame offsets:
#	150
#	15146
#	29230
#	52321
#	73060
#	85833
#	97013
#	122209
#	150764
#	167806
#	184770
#	202584
#	220735
#
# Disc length: 3974 seconds
#
# Revision: 0
# Processed by: cddbd v1.4PL0 Copyright (c) Steve Scherf et al.
# Submitted via: dBpowerAMP V4.0
#
DISCID=aa0f840d
DTITLE=Billy Boy Arnold - Boogie 'N' Shuffle
DYEAR=1900
DGENRE=Blues
TTITLE0=Bad Luck Blues
TTITLE1=Let's Work It Out
TTITLE2=Just Got To Know
TTITLE3=Greenville
TTITLE4=Hello Stranger
TTITLE5=Home In Your Heart
TTITLE6=Blackjack
TTITLE7=Boogie and Shuffle
TTITLE8=Every Night, Every Day
TTITLE9=Come Here Baby
TTITLE10=Just Your Fool
TTITLE11=Greenback
TTITLE12=Interview With Billy Boy Arnold
EXTD=
EXTT0=
EXTT1=
EXTT2=
EXTT3=
EXTT4=
EXTT5=
EXTT6=
EXTT7=
EXTT8=
EXTT9=
EXTT10=
EXTT11=
EXTT12=
PLAYORDER=
